HIERARCHY
ROOT Hips
{
	OFFSET -0.001795 -0.223333 0.028219
	CHANNELS 6 Xposition Yposition Zposition Zrotation Yrotation Xrotation
	JOINT LeftUpLeg
	{
		OFFSET 0.069520 -0.091406 -0.006815
		CHANNELS 3 Zrotation Yrotation Xrotation
		JOINT LeftLeg
		{
			OFFSET 0.034277 -0.375199 -0.004496
			CHANNELS 3 Zrotation Yrotation Xrotation
			JOINT LeftFoot
			{
				OFFSET -0.013596 -0.397961 -0.043693
				CHANNELS 3 Zrotation Yrotation Xrotation
				JOINT LeftToe
				{
					OFFSET 0.026358 -0.055791 0.119288
					CHANNELS 3 Zrotation Yrotation Xrotation
					End Site
					{
						OFFSET 0.000000 0.000000 0.000000
					}
				}
			}
		}
	}
	JOINT RightUpLeg
	{
		OFFSET -0.067670 -0.090522 -0.004320
		CHANNELS 3 Zrotation Yrotation Xrotation
		JOINT RightLeg
		{
			OFFSET -0.038290 -0.382569 -0.008850
			CHANNELS 3 Zrotation Yrotation Xrotation
			JOINT RightFoot
			{
				OFFSET 0.015774 -0.398415 -0.042312
				CHANNELS 3 Zrotation Yrotation Xrotation
				JOINT RightToe
				{
					OFFSET -0.025372 -0.048144 0.123348
					CHANNELS 3 Zrotation Yrotation Xrotation
					End Site
					{
						OFFSET 0.000000 0.000000 0.000000
					}
				}
			}
		}
	}
	JOINT Spine
	{
		OFFSET -0.002533 0.108963 -0.026696
		CHANNELS 3 Zrotation Yrotation Xrotation
		JOINT Spine1
		{
			OFFSET 0.005487 0.135180 0.001092
			CHANNELS 3 Zrotation Yrotation Xrotation
			JOINT Spine2
			{
				OFFSET 0.001457 0.052922 0.025425
				CHANNELS 3 Zrotation Yrotation Xrotation
				JOINT Neck
				{
					OFFSET -0.002778 0.213870 -0.042857
					CHANNELS 3 Zrotation Yrotation Xrotation
					JOINT Head
					{
						OFFSET 0.005152 0.064970 0.051349
						CHANNELS 3 Zrotation Yrotation Xrotation
						End Site
						{
							OFFSET 0.000000 0.000000 0.000000
						}
					}
				}
				JOINT LeftShoulder
				{
					OFFSET 0.078845 0.121749 -0.034090
					CHANNELS 3 Zrotation Yrotation Xrotation
					JOINT LeftArm
					{
						OFFSET 0.090977 0.030469 -0.008868
						CHANNELS 3 Zrotation Yrotation Xrotation
						JOINT LeftForeArm
						{
							OFFSET 0.259612 -0.012772 -0.027456
							CHANNELS 3 Zrotation Yrotation Xrotation
							JOINT LeftHand
							{
								OFFSET 0.249234 0.008986 -0.001171
								CHANNELS 3 Zrotation Yrotation Xrotation
								End Site
								{
									OFFSET 0.000000 0.000000 0.000000
								}
							}
						}
					}
				}
				JOINT RightShoulder
				{
					OFFSET -0.081759 0.118833 -0.038615
					CHANNELS 3 Zrotation Yrotation Xrotation
					JOINT RightArm
					{
						OFFSET -0.096012 0.032551 -0.009143
						CHANNELS 3 Zrotation Yrotation Xrotation
						JOINT RightForeArm
						{
							OFFSET -0.253742 -0.013329 -0.021401
							CHANNELS 3 Zrotation Yrotation Xrotation
							JOINT RightHand
							{
								OFFSET -0.255298 0.007772 -0.005559
								CHANNELS 3 Zrotation Yrotation Xrotation
								End Site
								{
									OFFSET 0.000000 0.000000 0.000000
								}
							}
						}
					}
				}
			}
		}
	}
}
MOTION
Frames: 18
Frame Time: 0.050000
-0.072043 0.949800 -0.754376 -1.047041 0.867848 0.543345 5.511393 -0.892192 -18.277601 -6.586689 0.749700 1.878145 2.273326 11.564427 27.414115 0.000000 0.000000 0.000000 3.583429 0.218695 -2.278738 -3.914168 2.522031 28.181685 0.109122 -2.480685 6.001992 0.000000 0.000000 0.000000 -4.469889 -0.084283 27.747763 12.488031 -2.296577 -24.935391 -4.247769 -2.015041 27.800193 2.145458 -1.712368 -5.647987 0.000000 0.000000 0.000000 -35.772590 4.265113 -5.172148 -33.783396 -8.270115 -3.813641 -7.165684 -45.482341 5.408008 0.000000 0.000000 0.000000 19.243559 4.195058 0.918805 51.278827 3.490547 -5.999249 5.414763 54.557739 5.718571 0.000000 0.000000 0.000000
-0.088302 0.946918 -0.790629 -1.270057 1.205923 -0.225017 6.962161 -0.756003 -20.216502 -6.620976 0.758138 2.279980 1.977646 11.674288 29.777705 0.000000 0.000000 0.000000 4.389076 0.411720 -3.614888 -2.533341 1.962715 27.910983 -0.944431 -4.445727 5.082785 0.000000 0.000000 0.000000 -3.727587 -0.322347 28.504711 13.003432 -2.557183 -24.105140 -4.580550 -0.696478 27.583463 2.340248 -1.771561 -4.996221 0.000000 0.000000 0.000000 -36.200351 4.675281 -6.291255 -34.469834 -5.983376 -4.219819 -7.387432 -44.176383 5.203022 0.000000 0.000000 0.000000 20.024313 4.386555 1.401561 49.545581 5.272064 -5.199580 2.512566 54.823368 4.530023 0.000000 0.000000 0.000000
-0.104366 0.945699 -0.825410 -1.414981 1.707463 -0.710340 8.604748 -0.542498 -21.605104 -7.169965 0.800167 1.642620 2.063412 12.086297 31.173233 0.000000 0.000000 0.000000 4.860217 0.757150 -5.937171 -1.534022 1.611799 29.265812 -0.789796 -3.600149 3.824841 0.000000 0.000000 0.000000 -3.310560 -0.485019 28.952795 13.473307 -2.560435 -24.920961 -4.678249 -0.360775 28.557325 1.424084 -0.978726 -4.373687 0.000000 0.000000 0.000000 -37.250688 6.033074 -7.794728 -34.433650 -3.191001 -4.883818 -9.980237 -43.169338 6.058062 0.000000 0.000000 0.000000 19.651737 5.141499 2.021537 47.197908 6.509992 -4.705373 3.121889 55.443383 4.945835 0.000000 0.000000 0.000000
-0.118564 0.948884 -0.856373 -0.902759 2.761865 -0.699101 8.989753 -0.563054 -22.546912 -7.741320 0.867858 2.306402 3.379089 13.337694 28.378240 0.000000 0.000000 0.000000 4.849995 1.148596 -8.685399 -0.576553 1.164010 30.133821 -1.174792 -4.921891 5.247569 0.000000 0.000000 0.000000 -3.174608 -0.559454 27.719908 13.678681 -2.780639 -23.706911 -4.752380 0.130873 28.107094 1.498050 -0.935864 -4.425416 0.000000 0.000000 0.000000 -37.642782 5.577713 -8.093513 -35.017966 -0.362586 -5.493817 -10.694635 -43.624229 6.318084 0.000000 0.000000 0.000000 19.118282 5.071456 2.257745 46.947789 6.099533 -4.863842 2.541994 55.958525 4.884784 0.000000 0.000000 0.000000
-0.130833 0.953693 -0.882729 -0.004503 4.666277 -1.134137 8.124158 -0.857831 -23.267777 -7.795204 0.991679 7.874316 5.286933 15.166780 22.521489 0.000000 0.000000 0.000000 4.264127 1.291541 -9.982911 -0.515487 0.933793 30.385441 -0.596560 -3.880682 6.351641 0.000000 0.000000 0.000000 -3.355561 -0.630677 27.421771 13.173943 -2.368898 -25.674890 -4.471097 -0.449644 29.548243 1.478740 -1.017162 -3.574993 0.000000 0.000000 0.000000 -37.574715 6.260604 -8.766456 -34.684343 1.459594 -5.935956 -14.583259 -43.591661 7.847741 0.000000 0.000000 0.000000 19.139974 4.032824 1.856730 45.824326 5.146211 -5.300366 5.255747 56.357077 6.454125 0.000000 0.000000 0.000000
-0.141578 0.960829 -0.905754 0.642094 6.701887 -2.162258 6.953657 -1.122615 -22.332166 -7.642560 1.020924 15.142551 7.372810 17.691839 18.761966 0.000000 0.000000 0.000000 3.917109 1.250862 -9.813090 -0.211442 0.576016 28.723319 -0.648249 -4.757688 9.547954 0.000000 0.000000 0.000000 -3.619729 -0.693467 27.076457 12.025990 -2.070725 -25.836572 -3.653903 -1.520279 29.983108 2.048368 -1.590800 -3.571035 0.000000 0.000000 0.000000 -36.894417 6.762759 -8.979845 -35.445151 2.259572 -6.322631 -15.828720 -43.954072 8.461640 0.000000 0.000000 0.000000 17.762159 3.727203 1.724652 47.154155 4.084446 -5.856441 4.485816 56.263554 6.165335 0.000000 0.000000 0.000000
-0.150719 0.968035 -0.927277 1.253321 8.941254 -2.511657 5.432701 -1.412707 -21.400542 -6.573899 0.582102 22.734092 6.799757 16.780471 15.742889 0.000000 0.000000 0.000000 3.194059 1.191847 -9.799694 0.167028 0.220430 26.842887 -0.391936 -4.557440 11.752884 0.000000 0.000000 0.000000 -3.987752 -0.724997 26.493529 12.101440 -2.012775 -26.322357 -4.193488 -2.220525 30.254466 2.286280 -1.692673 -4.389552 0.000000 0.000000 0.000000 -35.932934 7.126636 -9.284691 -35.946068 2.592641 -6.446308 -17.013393 -43.581661 8.818243 0.000000 0.000000 0.000000 17.197448 3.422768 1.707579 47.893735 2.703252 -6.468292 4.175655 55.128060 6.003355 0.000000 0.000000 0.000000
-0.158426 0.975060 -0.948356 1.692716 10.364463 -2.701785 4.453029 -1.450026 -19.505441 -7.043797 0.448040 28.421938 7.388868 17.318939 13.014093 0.000000 0.000000 0.000000 2.518286 1.119674 -9.667356 0.181226 0.133139 24.334485 0.484031 -3.314435 14.249567 0.000000 0.000000 0.000000 -4.150345 -0.772462 26.394294 11.077219 -1.662725 -27.120821 -3.588568 -2.743192 30.218428 2.923033 -2.363696 -3.798489 0.000000 0.000000 0.000000 -35.627603 7.511569 -9.634306 -36.092681 2.511507 -6.430164 -19.105851 -43.278803 9.572339 0.000000 0.000000 0.000000 16.405182 2.869170 1.485440 48.541776 1.338692 -7.062796 4.882729 54.381773 6.347579 0.000000 0.000000 0.000000
-0.164757 0.981129 -0.969408 1.827323 11.674348 -2.668371 3.838294 -1.400372 -17.694388 -7.796498 0.382330 32.938818 7.553822 17.479448 12.240472 0.000000 0.000000 0.000000 2.491868 1.119019 -9.724281 -0.012427 0.146055 21.948238 0.563830 -3.403291 16.128593 0.000000 0.000000 0.000000 -4.257909 -0.791981 25.725362 11.244533 -1.637139 -27.666750 -3.813442 -3.198866 30.290034 3.286533 -2.586621 -4.542222 0.000000 0.000000 0.000000 -35.460254 8.060263 -10.159182 -36.376674 2.060667 -6.321669 -20.243022 -43.051211 9.951668 0.000000 0.000000 0.000000 15.638794 2.520159 1.369370 49.482918 0.561859 -7.461954 4.889377 52.689233 6.192559 0.000000 0.000000 0.000000
-0.169946 0.985582 -0.989959 1.819552 12.796878 -2.373198 3.214773 -1.164562 -14.299325 -8.340930 0.296762 35.482814 7.185520 16.691039 10.775081 0.000000 0.000000 0.000000 2.449265 1.171504 -10.332365 -0.122693 0.144479 20.193741 0.677270 -3.331944 17.579031 0.000000 0.000000 0.000000 -4.078210 -0.825954 24.631356 10.806887 -1.482386 -28.036706 -3.541993 -3.915919 30.070048 3.798342 -3.101088 -4.442229 0.000000 0.000000 0.000000 -35.588470 7.931843 -10.119981 -36.252643 1.241922 -6.072237 -21.442728 -42.458133 10.275273 0.000000 0.000000 0.000000 14.905092 1.740911 0.969475 50.422067 -0.702427 -8.032610 5.896353 51.450028 6.512559 0.000000 0.000000 0.000000
-0.174003 0.988175 -1.009811 1.255114 13.395244 -2.272078 3.315519 -0.804066 -10.256112 -8.880312 0.403850 35.280628 5.509471 14.058190 10.537596 0.000000 0.000000 0.000000 2.987457 1.251314 -10.653598 -0.267635 0.188465 18.260821 0.785256 -3.203115 18.489980 0.000000 0.000000 0.000000 -3.382357 -0.924560 23.438464 10.443926 -1.321168 -28.821297 -3.677344 -4.630584 30.431014 4.632469 -3.998010 -4.067639 0.000000 0.000000 0.000000 -34.532055 8.123588 -9.849298 -37.622573 0.058310 -6.075135 -22.065950 -41.919440 10.457922 0.000000 0.000000 0.000000 14.773873 1.252904 0.692417 50.714374 -1.483674 -8.406899 5.753040 50.165910 6.214862 0.000000 0.000000 0.000000
-0.177008 0.987768 -1.028899 0.494504 14.108429 -2.144762 3.626653 -0.398186 -4.741048 -8.589220 0.278734 33.348191 3.973721 11.608819 10.351882 0.000000 0.000000 0.000000 3.159669 1.360789 -11.601267 -0.414090 0.218632 16.883028 0.370411 -3.779501 18.673867 0.000000 0.000000 0.000000 -2.464270 -0.976881 21.291828 9.766004 -1.199391 -28.236207 -3.752273 -5.783336 30.075188 4.599056 -4.190451 -3.152596 0.000000 0.000000 0.000000 -33.589468 7.241125 -8.722065 -39.014711 -1.051117 -6.057962 -20.468625 -41.759760 9.886054 0.000000 0.000000 0.000000 14.463350 0.183526 0.034412 51.319984 -2.605671 -8.854448 6.750143 48.905771 6.361447 0.000000 0.000000 0.000000
-0.178839 0.985084 -1.048204 -0.559127 14.286848 -2.158389 3.782119 -0.132066 0.352165 -7.087914 -0.095200 30.288181 2.132103 8.630893 10.108707 0.000000 0.000000 0.000000 3.376216 1.548501 -13.282282 0.489072 -0.048142 16.839623 -0.890259 -6.083541 19.979672 0.000000 0.000000 0.000000 -1.648596 -1.032539 19.982655 10.398647 -1.298480 -28.761509 -4.643779 -6.804518 30.841082 4.759728 -4.339587 -3.862995 0.000000 0.000000 0.000000 -32.654858 7.453674 -8.259204 -40.245614 -1.920925 -6.172783 -20.725494 -41.990795 10.216689 0.000000 0.000000 0.000000 14.506020 -0.393983 -0.391881 51.629672 -2.667293 -8.984904 6.893636 47.647138 6.133463 0.000000 0.000000 0.000000
-0.179554 0.978502 -1.069515 -1.567302 14.769163 -2.329984 2.788507 0.145964 5.915624 -3.365321 -1.011595 25.908148 -0.378739 5.868459 12.957542 0.000000 0.000000 0.000000 3.609690 1.700923 -14.650063 0.981386 -0.210006 16.670688 -1.860978 -7.828781 21.993811 0.000000 0.000000 0.000000 -0.323990 -1.204538 19.073513 9.833058 -1.171572 -28.682565 -4.856702 -8.159696 30.944418 5.388238 -4.690936 -6.014225 0.000000 0.000000 0.000000 -31.306367 5.276613 -6.013426 -42.184040 -3.346508 -6.186828 -18.312636 -42.079659 9.471264 0.000000 0.000000 0.000000 14.771372 -1.175509 -0.982559 52.391130 -3.654204 -9.481405 5.666871 47.711169 5.502053 0.000000 0.000000 0.000000
-0.179662 0.971431 -1.093891 -2.506747 14.904033 -2.893192 2.508589 0.298399 10.656464 -1.407437 -1.048871 20.146803 -2.431785 4.388572 16.599877 0.000000 0.000000 0.000000 3.722777 1.864935 -16.283456 1.899206 -0.506565 17.163905 -2.822876 -9.603800 24.857805 0.000000 0.000000 0.000000 0.735062 -1.404076 19.132750 9.944113 -1.213937 -28.513686 -5.606614 -8.950160 30.760610 5.675279 -4.944152 -6.337578 0.000000 0.000000 0.000000 -30.045632 4.645781 -5.098828 -43.685092 -5.031043 -5.903935 -16.144760 -41.806068 8.670043 0.000000 0.000000 0.000000 15.816824 -1.314135 -1.262438 52.664998 -3.488969 -9.425437 4.230949 46.764033 4.657675 0.000000 0.000000 0.000000
-0.179562 0.963793 -1.121569 -3.104450 15.160267 -2.524967 2.417721 0.335467 13.103944 -0.919611 -0.606671 13.336806 -1.918742 5.448040 17.227397 0.000000 0.000000 0.000000 3.734214 2.125080 -19.552994 1.859860 -0.560869 18.522648 -2.997638 -9.918802 25.861593 0.000000 0.000000 0.000000 1.552154 -1.527392 18.816637 9.401862 -1.100065 -28.180145 -5.775820 -9.907660 30.610123 5.672076 -4.756196 -7.999025 0.000000 0.000000 0.000000 -28.388741 2.612807 -3.226233 -45.428740 -6.480310 -5.684051 -12.745403 -42.303149 7.558831 0.000000 0.000000 0.000000 16.759239 -2.007436 -1.870897 52.954512 -3.782104 -9.553027 2.118084 46.916730 3.692409 0.000000 0.000000 0.000000
-0.179511 0.957211 -1.150711 -3.306043 14.682461 -2.829830 2.679206 0.325335 14.658523 -1.395906 -0.211745 8.490200 -1.785587 6.033146 18.425310 0.000000 0.000000 0.000000 3.446329 2.268476 -21.987207 1.880767 -0.619035 20.390974 -2.617666 -9.447718 25.389521 0.000000 0.000000 0.000000 1.251217 -1.555571 19.666528 9.601719 -1.131078 -28.518089 -5.894476 -10.132132 30.526987 5.458089 -4.581523 -8.370494 0.000000 0.000000 0.000000 -27.815632 2.004678 -2.557704 -45.302128 -8.085388 -5.164130 -12.344190 -42.418454 7.473924 0.000000 0.000000 0.000000 17.865626 -1.728312 -1.951837 52.631615 -3.473505 -9.353065 1.433897 46.675916 3.281681 0.000000 0.000000 0.000000
-0.179411 0.951747 -1.179237 -3.025210 13.654389 -3.535824 1.727293 0.555120 15.957992 -1.857406 0.022577 4.732312 -0.076245 8.944582 20.892429 0.000000 0.000000 0.000000 2.972320 2.313510 -23.341910 2.023262 -0.617309 20.925421 -2.714635 -9.882044 26.076911 0.000000 0.000000 0.000000 0.816789 -1.522072 20.474896 9.512388 -1.152300 -28.267769 -5.905621 -9.629238 30.201121 5.043513 -4.115181 -9.120566 0.000000 0.000000 0.000000 -26.768621 1.235831 -1.905420 -45.455593 -9.036863 -4.828436 -11.041341 -43.168436 7.114634 0.000000 0.000000 0.000000 19.016770 -1.584256 -2.032909 52.376312 -3.170784 -9.154017 0.355954 46.244790 2.764026 0.000000 0.000000 0.000000
